<svg width="1440" height="745" viewBox="0 0 1440 745" fill="none" xmlns="http://www.w3.org/2000/svg">
<g filter="url(#filter0_d_226_32421)">
<path d="M325.326 128.277H1114.67C1115.61 128.277 1116.3 128.278 1116.84 128.322C1117.38 128.366 1117.75 128.452 1118.06 128.61C1118.63 128.903 1119.1 129.369 1119.39 129.943C1119.55 130.254 1119.63 130.624 1119.68 131.162C1119.72 131.703 1119.72 132.389 1119.72 133.326V611.44C1119.72 612.376 1119.72 613.062 1119.68 613.603C1119.63 614.141 1119.55 614.512 1119.39 614.822C1119.1 615.396 1118.63 615.863 1118.06 616.156C1117.75 616.314 1117.38 616.4 1116.84 616.444C1116.3 616.488 1115.61 616.488 1114.67 616.488H325.326C324.389 616.488 323.703 616.488 323.162 616.444C322.624 616.4 322.254 616.314 321.943 616.156C321.369 615.863 320.903 615.396 320.61 614.822C320.452 614.512 320.366 614.141 320.322 613.603C320.278 613.062 320.277 612.376 320.277 611.44V133.326C320.277 132.389 320.278 131.703 320.322 131.162C320.366 130.624 320.452 130.254 320.61 129.943C320.903 129.369 321.369 128.903 321.943 128.61C322.254 128.452 322.624 128.366 323.162 128.322C323.703 128.278 324.389 128.277 325.326 128.277Z" stroke="#A0A0A0" stroke-width="0.554785"/>
<rect x="320.555" y="171.828" width="798.89" height="0.554785" fill="#DFE1E4"/>
<g filter="url(#filter1_i_226_32421)">
<path d="M320.555 131.329C320.555 129.797 321.797 128.555 323.329 128.555H1116.67C1118.2 128.555 1119.45 129.797 1119.45 131.329V151.856H320.555V131.329Z" fill="#DEE1E7"/>
</g>
<path fill-rule="evenodd" clip-rule="evenodd" d="M363.27 137.43C363.27 134.979 365.257 132.992 367.708 132.992H491.98C494.431 132.992 496.418 134.979 496.418 137.43V146.312H496.421V148.809C496.421 150.494 497.787 151.86 499.473 151.86H486.99V151.855H372.701V151.86H360.219C361.884 151.86 363.237 150.527 363.27 148.869V137.43ZM360.219 151.86H359.941V151.848C360.033 151.856 360.125 151.86 360.219 151.86ZM499.473 151.86H499.75V151.848C499.659 151.856 499.566 151.86 499.473 151.86Z" fill="#FAFAFB"/>
<mask id="mask0_226_32421" style="mask-type:alpha" maskUnits="userSpaceOnUse" x="382" y="137" width="98" height="10">
<rect x="382.137" y="137.984" width="97.6422" height="8.87656" fill="#C4C4C4"/>
</mask>
<g mask="url(#mask0_226_32421)">
<path d="M385.618 144.539H386.203V140.375H387.715V139.848H384.106V140.375H385.618V144.539ZM389.427 144.601C389.633 144.601 389.818 144.575 389.983 144.523C390.15 144.469 390.294 144.397 390.415 144.308C390.536 144.217 390.635 144.116 390.711 144.006C390.789 143.893 390.843 143.777 390.873 143.658L390.88 143.632H390.314L390.301 143.661C390.271 143.731 390.218 143.799 390.142 143.866C390.066 143.933 389.97 143.989 389.853 144.032C389.736 144.075 389.598 144.097 389.44 144.097C389.227 144.097 389.043 144.05 388.887 143.957C388.731 143.862 388.611 143.726 388.526 143.551C388.442 143.373 388.4 143.16 388.4 142.91V142.686C388.4 142.424 388.443 142.203 388.53 142.023C388.616 141.843 388.733 141.708 388.881 141.617C389.03 141.524 389.199 141.477 389.388 141.477C389.576 141.477 389.743 141.521 389.888 141.61C390.034 141.697 390.147 141.829 390.23 142.007C390.312 142.184 390.353 142.411 390.353 142.686V142.91L390.633 142.498H388.114V142.949H390.922V142.728C390.922 142.38 390.86 142.074 390.737 141.812C390.615 141.547 390.44 141.341 390.21 141.194C389.983 141.047 389.71 140.973 389.391 140.973C389.075 140.973 388.798 141.05 388.562 141.204C388.326 141.358 388.143 141.571 388.013 141.844C387.885 142.117 387.821 142.435 387.821 142.797V142.8C387.821 143.166 387.885 143.485 388.013 143.756C388.143 144.024 388.327 144.232 388.565 144.38C388.806 144.527 389.093 144.601 389.427 144.601ZM391.9 144.539H392.465V142.368C392.465 142.203 392.5 142.053 392.569 141.919C392.641 141.782 392.737 141.674 392.859 141.594C392.982 141.514 393.12 141.474 393.271 141.474C393.493 141.474 393.669 141.537 393.801 141.662C393.934 141.786 394 141.952 394 142.16V144.539H394.565V142.286C394.565 142.137 394.599 142.001 394.666 141.88C394.733 141.756 394.827 141.658 394.949 141.584C395.07 141.51 395.212 141.474 395.375 141.474C395.622 141.474 395.805 141.539 395.924 141.669C396.045 141.797 396.106 141.989 396.106 142.247V144.539H396.672V142.117C396.672 141.872 396.628 141.665 396.542 141.496C396.455 141.325 396.328 141.195 396.161 141.106C395.997 141.017 395.795 140.973 395.557 140.973C395.396 140.973 395.246 140.999 395.105 141.051C394.966 141.101 394.844 141.172 394.738 141.266C394.631 141.357 394.547 141.464 394.484 141.587H394.432C394.378 141.466 394.305 141.36 394.214 141.269C394.123 141.176 394.015 141.103 393.889 141.051C393.763 140.999 393.621 140.973 393.463 140.973C393.234 140.973 393.037 141.025 392.875 141.129C392.715 141.233 392.595 141.379 392.517 141.568H392.465V141.035H391.9V144.539ZM397.792 145.709H398.358V143.986H398.41C398.475 144.112 398.562 144.22 398.67 144.312C398.78 144.403 398.906 144.474 399.047 144.526C399.19 144.576 399.342 144.601 399.502 144.601C399.799 144.601 400.057 144.526 400.276 144.377C400.497 144.227 400.668 144.017 400.789 143.746C400.911 143.475 400.971 143.156 400.971 142.79V142.784C400.971 142.42 400.911 142.102 400.789 141.831C400.668 141.56 400.497 141.35 400.276 141.201C400.057 141.049 399.799 140.973 399.502 140.973C399.34 140.973 399.189 140.998 399.05 141.048C398.912 141.098 398.788 141.169 398.68 141.262C398.571 141.353 398.481 141.464 398.41 141.594H398.358V141.035H397.792V145.709ZM399.372 144.1C399.16 144.1 398.977 144.047 398.823 143.941C398.669 143.835 398.551 143.684 398.468 143.489C398.386 143.292 398.345 143.059 398.345 142.79V142.784C398.345 142.513 398.386 142.28 398.468 142.085C398.551 141.89 398.669 141.739 398.823 141.633C398.977 141.527 399.16 141.474 399.372 141.474C399.587 141.474 399.77 141.527 399.921 141.633C400.073 141.737 400.189 141.886 400.269 142.082C400.352 142.277 400.393 142.511 400.393 142.784V142.79C400.393 143.061 400.352 143.295 400.269 143.492C400.189 143.687 400.073 143.838 399.921 143.944C399.77 144.048 399.587 144.1 399.372 144.1ZM401.988 144.539H402.554V139.644H401.988V144.539ZM404.701 144.601C404.86 144.601 405.005 144.579 405.137 144.536C405.269 144.49 405.387 144.424 405.491 144.338C405.598 144.251 405.687 144.146 405.761 144.022H405.813V144.539H406.379V142.14C406.379 141.897 406.327 141.689 406.223 141.516C406.121 141.34 405.97 141.206 405.771 141.113C405.574 141.02 405.332 140.973 405.046 140.973C404.797 140.973 404.575 141.012 404.38 141.09C404.185 141.166 404.025 141.273 403.902 141.412C403.78 141.548 403.705 141.709 403.674 141.893L403.671 141.913H404.237L404.24 141.903C404.285 141.766 404.375 141.661 404.51 141.587C404.644 141.512 404.816 141.474 405.027 141.474C405.289 141.474 405.485 141.531 405.615 141.646C405.747 141.759 405.813 141.923 405.813 142.14V143.232C405.813 143.399 405.77 143.549 405.683 143.681C405.599 143.813 405.482 143.918 405.332 143.996C405.183 144.072 405.011 144.11 404.818 144.11C404.615 144.11 404.446 144.061 404.311 143.964C404.177 143.864 404.11 143.725 404.11 143.548V143.541C404.11 143.368 404.17 143.233 404.292 143.138C404.415 143.043 404.61 142.987 404.877 142.972L406.096 142.894V142.442L404.809 142.52C404.401 142.544 404.086 142.645 403.863 142.823C403.642 142.998 403.531 143.242 403.531 143.554V143.561C403.531 143.773 403.582 143.957 403.684 144.113C403.788 144.269 403.928 144.39 404.103 144.474C404.281 144.559 404.48 144.601 404.701 144.601ZM408.757 144.565C408.814 144.565 408.869 144.562 408.923 144.555C408.977 144.549 409.032 144.541 409.086 144.533V144.051C409.034 144.056 408.989 144.059 408.952 144.061C408.918 144.063 408.876 144.064 408.826 144.064C408.644 144.064 408.514 144.02 408.436 143.931C408.358 143.84 408.319 143.692 408.319 143.486V141.503H409.086V141.035H408.319V140.128H407.733V141.035H407.181V141.503H407.733V143.629C407.733 143.963 407.814 144.202 407.974 144.347C408.137 144.492 408.398 144.565 408.757 144.565ZM411.416 144.601C411.621 144.601 411.807 144.575 411.971 144.523C412.138 144.469 412.282 144.397 412.404 144.308C412.525 144.217 412.624 144.116 412.7 144.006C412.778 143.893 412.832 143.777 412.862 143.658L412.869 143.632H412.303L412.29 143.661C412.26 143.731 412.207 143.799 412.131 143.866C412.055 143.933 411.958 143.989 411.841 144.032C411.724 144.075 411.587 144.097 411.429 144.097C411.216 144.097 411.032 144.05 410.876 143.957C410.72 143.862 410.6 143.726 410.515 143.551C410.431 143.373 410.388 143.16 410.388 142.91V142.686C410.388 142.424 410.432 142.203 410.518 142.023C410.605 141.843 410.722 141.708 410.869 141.617C411.019 141.524 411.188 141.477 411.377 141.477C411.565 141.477 411.732 141.521 411.877 141.61C412.022 141.697 412.136 141.829 412.218 142.007C412.301 142.184 412.342 142.411 412.342 142.686V142.91L412.622 142.498H410.102V142.949H412.911V142.728C412.911 142.38 412.849 142.074 412.726 141.812C412.604 141.547 412.429 141.341 412.199 141.194C411.971 141.047 411.698 140.973 411.38 140.973C411.063 140.973 410.787 141.05 410.551 141.204C410.315 141.358 410.132 141.571 410.002 141.844C409.874 142.117 409.81 142.435 409.81 142.797V142.8C409.81 143.166 409.874 143.485 410.002 143.756C410.132 144.024 410.316 144.232 410.554 144.38C410.795 144.527 411.082 144.601 411.416 144.601Z" fill="#202124"/>
</g>
<g clip-path="url(#clip0_226_32421)">
<path d="M377.887 144.655H376.48C376.428 144.655 376.379 144.634 376.342 144.598C376.306 144.561 376.285 144.512 376.285 144.46V139.265C376.285 139.213 376.306 139.164 376.342 139.127C376.379 139.091 376.428 139.07 376.48 139.07H377.887C377.939 139.07 377.988 139.091 378.024 139.127C378.061 139.164 378.081 139.213 378.081 139.265V144.46C378.081 144.486 378.076 144.511 378.067 144.535C378.057 144.558 378.043 144.58 378.025 144.598C378.007 144.616 377.985 144.63 377.961 144.64C377.938 144.65 377.913 144.655 377.887 144.655V144.655Z" fill="url(#paint0_linear_226_32421)"/>
<path d="M371.361 144.674L370.103 144.042C370.057 144.018 370.022 143.978 370.006 143.929C369.99 143.88 369.994 143.827 370.017 143.781L372.35 139.138C372.373 139.092 372.413 139.057 372.462 139.041C372.511 139.025 372.565 139.029 372.611 139.052L373.869 139.684C373.915 139.707 373.95 139.748 373.966 139.797C373.982 139.846 373.978 139.899 373.955 139.945L371.622 144.587C371.598 144.633 371.558 144.668 371.509 144.685C371.46 144.701 371.407 144.697 371.361 144.674Z" fill="url(#paint1_linear_226_32421)"/>
<path d="M375.076 144.571L376.073 139.511C376.083 139.46 376.073 139.408 376.045 139.365C376.016 139.322 375.972 139.293 375.922 139.282L374.542 139.004C374.517 138.999 374.491 138.999 374.466 139.004C374.441 139.009 374.417 139.019 374.396 139.033C374.375 139.047 374.356 139.066 374.342 139.087C374.328 139.108 374.318 139.132 374.313 139.157L373.316 144.218C373.306 144.269 373.317 144.321 373.345 144.364C373.374 144.406 373.418 144.436 373.469 144.446L374.848 144.725C374.873 144.729 374.899 144.729 374.924 144.724C374.949 144.719 374.973 144.709 374.994 144.695C375.015 144.681 375.033 144.662 375.047 144.641C375.061 144.62 375.071 144.596 375.076 144.571Z" fill="url(#paint2_linear_226_32421)"/>
</g>
<line x1="489.571" y1="140.141" x2="485.256" y2="144.457" stroke="#3C4043" stroke-width="0.554785" stroke-linejoin="round"/>
<line x1="485.255" y1="140.14" x2="489.57" y2="144.455" stroke="#3C4043" stroke-width="0.554785" stroke-linejoin="round"/>
<circle cx="352.735" cy="140.204" r="3.05132" fill="#00D641" stroke="#12B829" stroke-width="0.554785"/>
<circle cx="341.637" cy="140.204" r="3.05132" fill="#FFBD00" stroke="#E79F13" stroke-width="0.554785"/>
<circle cx="330.544" cy="140.204" r="3.05132" fill="#FF3B47" stroke="#EF1320" stroke-width="0.554785"/>
<line x1="508.629" y1="138.539" x2="508.629" y2="146.306" stroke="#3C4043" stroke-width="1.10957" stroke-linejoin="round"/>
<line x1="504.746" y1="142.422" x2="512.513" y2="142.422" stroke="#3C4043" stroke-width="1.10957" stroke-linejoin="round"/>
<path d="M321 152H1119V611C1119 613.761 1116.76 616 1114 616H326C323.239 616 321 613.761 321 611V152Z" fill="#FAFAFB"/>
<rect x="394" y="538" width="48" height="48" rx="4" fill="url(#paint3_linear_226_32421)"/>
<path d="M427.5 562.866L411 572.392C410.333 572.777 409.5 572.296 409.5 571.526L409.5 552.474C409.5 551.704 410.333 551.223 411 551.608L427.5 561.134C428.167 561.519 428.167 562.481 427.5 562.866Z" stroke="white" stroke-opacity="0.6" stroke-width="2" stroke-linejoin="round"/>
</g>
<path d="M321 152H360C362.209 152 364 153.791 364 156V616H321V152Z" fill="url(#paint4_linear_226_32421)"/>
<path fill-rule="evenodd" clip-rule="evenodd" d="M346.763 178.159L344.5 189.643C344.489 189.7 344.467 189.754 344.435 189.803C344.403 189.851 344.362 189.893 344.314 189.925C344.266 189.957 344.212 189.98 344.155 189.992C344.098 190.003 344.039 190.003 343.982 189.992L340.852 189.36C340.738 189.337 340.637 189.27 340.572 189.173C340.508 189.076 340.484 188.957 340.506 188.843L342.769 177.357C342.78 177.3 342.803 177.246 342.835 177.197C342.867 177.149 342.908 177.107 342.957 177.075C343.005 177.042 343.059 177.02 343.117 177.009C343.174 176.997 343.232 176.997 343.289 177.009L346.421 177.64C346.534 177.664 346.634 177.732 346.698 177.829C346.762 177.926 346.786 178.045 346.763 178.159ZM336.071 189.881L333.218 188.446C333.113 188.394 333.034 188.302 332.997 188.191C332.96 188.08 332.969 187.959 333.021 187.854L338.316 177.318C338.369 177.214 338.461 177.134 338.572 177.098C338.683 177.061 338.804 177.07 338.908 177.122L341.763 178.557C341.868 178.61 341.947 178.701 341.984 178.812C342.021 178.923 342.012 179.045 341.959 179.149L336.664 189.685C336.611 189.789 336.519 189.869 336.408 189.906C336.297 189.942 336.176 189.933 336.071 189.881ZM350.88 189.836H347.685C347.568 189.836 347.456 189.79 347.373 189.707C347.291 189.624 347.244 189.512 347.244 189.395V177.603C347.244 177.486 347.291 177.374 347.374 177.292C347.456 177.209 347.568 177.162 347.685 177.162H350.88C350.997 177.162 351.109 177.209 351.192 177.291C351.274 177.374 351.321 177.486 351.321 177.603V189.395C351.321 189.453 351.31 189.51 351.287 189.564C351.265 189.618 351.233 189.666 351.192 189.707C351.151 189.748 351.102 189.781 351.049 189.803C350.995 189.825 350.938 189.836 350.88 189.836Z" fill="white" fill-opacity="0.4"/>
<circle cx="342.203" cy="238" r="6" fill="white" fill-opacity="0.4"/>
<circle cx="342.203" cy="272" r="6" fill="white" fill-opacity="0.4"/>
<circle cx="342.203" cy="306" r="6" fill="white" fill-opacity="0.4"/>
<circle cx="342.203" cy="374" r="6" fill="white" fill-opacity="0.4"/>
<circle cx="342.203" cy="408" r="6" fill="white" fill-opacity="0.4"/>
<circle cx="342.203" cy="442" r="6" fill="white" fill-opacity="0.4"/>
<circle cx="342.203" cy="340" r="6" fill="white" fill-opacity="0.4"/>
<circle cx="342.203" cy="476" r="6" fill="white" fill-opacity="0.4"/>
<path fill-rule="evenodd" clip-rule="evenodd" d="M346.763 178.159L344.5 189.643C344.489 189.7 344.467 189.754 344.435 189.803C344.403 189.851 344.362 189.893 344.314 189.925C344.266 189.957 344.212 189.98 344.155 189.992C344.098 190.003 344.039 190.003 343.982 189.992L340.852 189.36C340.738 189.337 340.637 189.27 340.572 189.173C340.508 189.076 340.484 188.957 340.506 188.843L342.769 177.357C342.78 177.3 342.803 177.246 342.835 177.197C342.867 177.149 342.908 177.107 342.957 177.075C343.005 177.042 343.059 177.02 343.117 177.009C343.174 176.997 343.232 176.997 343.289 177.009L346.421 177.64C346.534 177.664 346.634 177.732 346.698 177.829C346.762 177.926 346.786 178.045 346.763 178.159ZM336.071 189.881L333.218 188.446C333.113 188.394 333.034 188.302 332.997 188.191C332.96 188.08 332.969 187.959 333.021 187.854L338.316 177.318C338.369 177.214 338.461 177.134 338.572 177.098C338.683 177.061 338.804 177.07 338.908 177.122L341.763 178.557C341.868 178.61 341.947 178.701 341.984 178.812C342.021 178.923 342.012 179.045 341.959 179.149L336.664 189.685C336.611 189.789 336.519 189.869 336.408 189.906C336.297 189.942 336.176 189.933 336.071 189.881ZM350.88 189.836H347.685C347.568 189.836 347.456 189.79 347.373 189.707C347.291 189.624 347.244 189.512 347.244 189.395V177.603C347.244 177.486 347.291 177.374 347.374 177.292C347.456 177.209 347.568 177.162 347.685 177.162H350.88C350.997 177.162 351.109 177.209 351.192 177.291C351.274 177.374 351.321 177.486 351.321 177.603V189.395C351.321 189.453 351.31 189.51 351.287 189.564C351.265 189.618 351.233 189.666 351.192 189.707C351.151 189.748 351.102 189.781 351.049 189.803C350.995 189.825 350.938 189.836 350.88 189.836Z" fill="white"/>
<defs>
<filter id="filter0_d_226_32421" x="280" y="94" width="880" height="568.766" filterUnits="userSpaceOnUse" color-interpolation-filters="sRGB">
<feFlood flood-opacity="0" result="BackgroundImageFix"/>
<feColorMatrix in="SourceAlpha" type="matrix" values="0 0 0 0 0 0 0 0 0 0 0 0 0 0 0 0 0 0 127 0" result="hardAlpha"/>
<feOffset dy="6"/>
<feGaussianBlur stdDeviation="20"/>
<feColorMatrix type="matrix" values="0 0 0 0 0.423529 0 0 0 0 0.423529 0 0 0 0 0.423529 0 0 0 0.15 0"/>
<feBlend mode="normal" in2="BackgroundImageFix" result="effect1_dropShadow_226_32421"/>
<feBlend mode="normal" in="SourceGraphic" in2="effect1_dropShadow_226_32421" result="shape"/>
</filter>
<filter id="filter1_i_226_32421" x="320.555" y="128.555" width="798.891" height="23.3008" filterUnits="userSpaceOnUse" color-interpolation-filters="sRGB">
<feFlood flood-opacity="0" result="BackgroundImageFix"/>
<feBlend mode="normal" in="SourceGraphic" in2="BackgroundImageFix" result="shape"/>
<feColorMatrix in="SourceAlpha" type="matrix" values="0 0 0 0 0 0 0 0 0 0 0 0 0 0 0 0 0 0 127 0" result="hardAlpha"/>
<feOffset dy="0.554785"/>
<feComposite in2="hardAlpha" operator="arithmetic" k2="-1" k3="1"/>
<feColorMatrix type="matrix" values="0 0 0 0 0.94902 0 0 0 0 0.952941 0 0 0 0 0.960784 0 0 0 1 0"/>
<feBlend mode="normal" in2="shape" result="effect1_innerShadow_226_32421"/>
</filter>
<linearGradient id="paint0_linear_226_32421" x1="374.577" y1="142.824" x2="378.376" y2="141.423" gradientUnits="userSpaceOnUse">
<stop offset="0.02" stop-color="#B02DE9"/>
<stop offset="0.8" stop-color="#6D00CC"/>
</linearGradient>
<linearGradient id="paint1_linear_226_32421" x1="371.242" y1="142.184" x2="375.325" y2="140.419" gradientUnits="userSpaceOnUse">
<stop stop-color="#FF00FF"/>
<stop offset="0.18" stop-color="#E80DF9"/>
<stop offset="0.54" stop-color="#C024ED"/>
<stop offset="0.73" stop-color="#B02DE9"/>
</linearGradient>
<linearGradient id="paint2_linear_226_32421" x1="370.291" y1="143.485" x2="378.661" y2="140.404" gradientUnits="userSpaceOnUse">
<stop offset="0.02" stop-color="#FF00FF"/>
<stop offset="0.09" stop-color="#E80DF9"/>
<stop offset="0.23" stop-color="#C024ED"/>
<stop offset="0.3" stop-color="#B02DE9"/>
<stop offset="0.42" stop-color="#A42BE3"/>
<stop offset="0.63" stop-color="#8527D5"/>
<stop offset="0.85" stop-color="#6021C3"/>
</linearGradient>
<linearGradient id="paint3_linear_226_32421" x1="396" y1="538" x2="440.5" y2="584.5" gradientUnits="userSpaceOnUse">
<stop stop-color="#680FB9"/>
<stop offset="1" stop-color="#A839FF"/>
</linearGradient>
<linearGradient id="paint4_linear_226_32421" x1="342.5" y1="152" x2="342.5" y2="616" gradientUnits="userSpaceOnUse">
<stop stop-color="#680FB9"/>
<stop offset="1" stop-color="#A839FF"/>
</linearGradient>
<clipPath id="clip0_226_32421">
<rect width="8.87656" height="8.87656" fill="white" transform="translate(369.926 136.984)"/>
</clipPath>
</defs>
</svg>
