<?xml version="1.0" standalone="no"?>
<!DOCTYPE svg PUBLIC "-//W3C//DTD SVG 20010904//EN"
 "http://www.w3.org/TR/2001/REC-SVG-20010904/DTD/svg10.dtd">
<svg version="1.0" xmlns="http://www.w3.org/2000/svg"
 width="512.000000pt" height="512.000000pt" viewBox="0 0 512.000000 512.000000"
 preserveAspectRatio="xMidYMid meet">
<metadata>
Created by potrace 1.14, written by Peter Selinger 2001-2017
</metadata>
<g transform="translate(0.000000,512.000000) scale(0.100000,-0.100000)"
fill="#000000" stroke="none">
<path d="M2768 4124 c-39 -21 -54 -55 -77 -180 -27 -140 -30 -154 -36 -184 -3
-14 -7 -36 -10 -50 -3 -14 -7 -36 -10 -50 -3 -14 -7 -36 -10 -50 -3 -14 -7
-36 -10 -50 -7 -33 -14 -68 -21 -105 -3 -16 -26 -133 -51 -260 -25 -126 -47
-241 -49 -255 -3 -14 -13 -68 -24 -120 -21 -103 -26 -129 -35 -175 -3 -16 -8
-41 -11 -55 -3 -14 -8 -36 -10 -50 -3 -14 -9 -47 -14 -75 -6 -27 -12 -61 -15
-75 -3 -14 -12 -60 -21 -103 -8 -42 -17 -88 -20 -101 -3 -21 -102 -520 -109
-556 -47 -227 -75 -397 -70 -419 8 -40 45 -71 97 -83 158 -36 739 -149 766
-150 37 0 76 22 92 52 8 15 128 601 166 810 3 14 18 90 34 170 16 80 31 156
34 170 2 14 25 131 51 260 25 129 48 245 51 258 2 12 6 33 9 47 3 14 7 37 10
53 3 15 10 50 16 78 5 28 12 61 14 75 3 13 7 33 9 44 2 11 27 139 56 285 29
146 54 272 55 280 7 30 54 276 59 300 5 34 -17 85 -46 104 -18 12 -139 41
-304 72 -12 2 -111 22 -220 44 -191 39 -303 60 -314 60 -3 -1 -17 -7 -32 -16z"/>
<path d="M1661 4093 c-20 -19 -132 -231 -334 -633 -168 -333 -460 -915 -651
-1293 -245 -487 -346 -698 -346 -721 0 -19 9 -45 21 -59 21 -28 684 -366 755
-386 64 -18 95 5 147 107 49 94 661 1312 1037 2060 242 482 251 504 217 556
-21 31 -747 396 -788 396 -17 0 -40 -11 -58 -27z"/>
<path d="M3857 4084 c-61 -32 -57 65 -57 -1529 0 -1083 3 -1462 12 -1478 17
-34 48 -57 77 -58 139 -7 803 -3 830 5 20 6 41 22 52 41 18 29 19 86 19 1495
l0 1466 -29 34 -29 35 -424 1 c-349 2 -428 -1 -451 -12z"/>
</g>
</svg>
