<svg width="64" height="64" viewBox="0 0 64 64" fill="none" xmlns="http://www.w3.org/2000/svg">
<rect width="64" height="64" rx="32" fill="#0D0929"/>
<path fill-rule="evenodd" clip-rule="evenodd" d="M33.387 20.5324C33.5867 19.5059 34.5806 18.8355 35.6072 19.0352L39.8514 19.8605C40.8779 20.0602 41.5482 21.0542 41.3486 22.0807L37.3002 42.8979C37.1006 43.9244 36.1066 44.5948 35.0801 44.3951L30.8359 43.5698C29.8094 43.3701 29.1391 42.3761 29.3387 41.3496L33.387 20.5324ZM42.2175 21.0636C42.2175 20.0178 43.0652 19.1701 44.111 19.1701H48.4347C49.4804 19.1701 50.3282 20.0178 50.3282 21.0636V42.2708C50.3282 43.3166 49.4804 44.1643 48.4347 44.1643H44.111C43.0652 44.1643 42.2175 43.3166 42.2175 42.2708V21.0636ZM26.8415 19.5249C25.9073 19.0548 24.769 19.431 24.2989 20.3651L14.766 39.309C14.2959 40.2431 14.6721 41.3815 15.6062 41.8515L19.4685 43.7951C20.4026 44.2652 21.541 43.889 22.0111 42.9548L31.544 24.011C32.0141 23.0769 31.6379 21.9385 30.7037 21.4684L26.8415 19.5249Z" fill="url(#paint0_radial_797_17665)"/>
<defs>
<radialGradient id="paint0_radial_797_17665" cx="0" cy="0" r="1" gradientUnits="userSpaceOnUse" gradientTransform="translate(14.5635 40.7494) rotate(-31.2984) scale(41.8664 41.7996)">
<stop offset="0.0839709" stop-color="#FE00FE"/>
<stop offset="0.808973" stop-color="#6800C7"/>
</radialGradient>
</defs>
</svg>
